<?xml version="1.0" encoding="utf-8"?>
<!-- Generator: Adobe Illustrator 17.0.0, SVG Export Plug-In . SVG Version: 6.00 Build 0)  -->
<!DOCTYPE svg PUBLIC "-//W3C//DTD SVG 1.1//EN" "http://www.w3.org/Graphics/SVG/1.1/DTD/svg11.dtd">
<svg version="1.1" id="Layer_1" xmlns="http://www.w3.org/2000/svg" xmlns:xlink="http://www.w3.org/1999/xlink" x="0px" y="0px"
	 width="841.89px" height="322.484px" viewBox="0 0 841.89 322.484" enable-background="new 0 0 841.89 322.484"
	 xml:space="preserve">
<g>
	<g>
		<g>
			<g>
				<path d="M315.017,300.743l0.182-18.152h-27.958l-15.556,18.152h-8.356l59.362-68.999l0.166,68.999H315.017z M315.465,249.313
					l-22.586,26.641h22.182L315.465,249.313z"/>
				<path d="M390.918,275.563c-1.455,3.419-3.15,6.93-5.299,10.248c-6.536,10.248-17.228,16.202-28.577,16.202
					c-12.794,0-21.861-7.124-17.896-20.104c0.686-2.245,1.477-4.491,2.471-6.733l17.24-39.527h7.531l-17.48,40.307
					c-0.712,1.66-1.455,3.416-1.963,5.073c-2.833,9.274,2.382,14.153,11.771,14.153c4.954,0,10.073-1.562,14.552-5.073
					c5.275-4.1,8.097-9.958,10.429-15.225l17.048-39.235h7.531L390.918,275.563z"/>
				<path d="M456.911,242.285h-16.507l-25.498,58.459h-7.531l25.498-58.459h-17.125l2.853-6.638h41.165L456.911,242.285z"/>
				<path d="M474.467,302.012c-20.014,0-30.195-13.272-24.379-32.302c6.113-20.008,25.755-35.329,47.216-35.329
					c19.705,0,30.243,12.786,24.486,31.618C515.643,286.103,496.34,302.012,474.467,302.012z M495.419,241.212
					c-17.024,0-32.746,12.296-37.609,28.205c-4.504,14.736,3.27,25.763,18.95,25.763c17.335,0,32.43-13.272,37.232-28.985
					C518.554,251.263,511.31,241.212,495.419,241.212z"/>
			</g>
		</g>
		<g>
			<path fill="#EF0005" d="M599.155,249.212c-1.088-4.879-3.85-8-9.833-8c-6.294,0-13.001,4.39-14.879,10.54
				c-4.086,13.368,22.374,12.198,16.468,31.522c-3.429,11.221-14.805,18.737-26.359,18.737c-5.47,0-10.474-1.854-13.424-5.369
				c-2.112-2.535-2.751-5.172-3.286-8.489l6.999-3.32c0.947,6.345,3.852,10.346,11.589,10.346c7.742,0,14.685-5.174,16.92-12.49
				c4.416-14.446-22.017-12.687-16.409-31.038c3.19-10.439,13.842-17.271,24.571-17.271c8.255,0,12.384,3.706,14.249,10.442
				L599.155,249.212z"/>
			<path fill="#EF0005" d="M642.425,300.743l0.184-18.152h-27.958l-15.558,18.152h-8.354l59.36-68.999l0.168,68.999H642.425z
				 M642.875,249.313l-22.586,26.641h22.182L642.875,249.313z"/>
			<path fill="#EF0005" d="M689.168,300.743H660.59l28.354-65.096h7.534l-25.401,58.461h20.945L689.168,300.743z"/>
			<path fill="#EF0005" d="M759.348,242.285h-26.103l-8.662,19.91h26.101l-2.852,6.635H721.73l-11.03,25.279h26.103l-2.852,6.635
				h-33.739l28.354-65.096h33.739L759.348,242.285z"/>
			<path fill="#EF0005" d="M800.362,249.212c-1.088-4.879-3.849-8-9.833-8c-6.294,0-13.001,4.39-14.879,10.54
				c-4.086,13.368,22.374,12.198,16.468,31.522c-3.429,11.221-14.805,18.737-26.359,18.737c-5.47,0-10.474-1.854-13.424-5.369
				c-2.112-2.535-2.751-5.172-3.286-8.489l6.999-3.32c0.947,6.345,3.852,10.346,11.589,10.346c7.742,0,14.685-5.174,16.92-12.49
				c4.416-14.446-22.017-12.687-16.409-31.038c3.19-10.439,13.842-17.271,24.571-17.271c8.255,0,12.384,3.706,14.249,10.442
				L800.362,249.212z"/>
		</g>
	</g>
	<g>
		<g>
			<path fill="#525446" d="M46.979,190.053c-9.253-20.549-8.326-46.282,2.611-72.461c15.599-37.341,49.301-70.239,87.386-89.298
				c-0.043-0.112-0.081-0.218-0.124-0.33c0,0-74.234,29.285-103.52,96.028s28.604,96.028,43.587,98.071c0,0,0.318,0.015,0.907,0.023
				C63.879,214.93,53.284,204.058,46.979,190.053z"/>
		</g>
	</g>
	<path fill="#161211" d="M204.413,20.472c-57.393,0-122.77,45.128-146.025,100.795c-18.936,45.328-4.099,83.661,33.048,96.34
		c-28.021-13.834-28.714-62.238-10.331-98.823c20.65-41.098,69.257-76.505,114.103-76.505c22.835,0,40.417,9.266,49.395,23.738
		l-20.35,8.939h24.557c3.667,10.85,3.241,23.648-2.272,37.231h-32.273l27.62,9.545c-5.425,9.593-13.641,20.564-23.618,31.656
		l-31.017-14.413l25.197,20.706l16.878,13.87l-0.001,0.005c15.924-15.245,28.904-33.143,36.902-52.288
		C289.48,65.599,261.805,20.472,204.413,20.472z"/>
	<g>
		<path fill="#525446" d="M153.603,155.288c-6.455-4.098-8.647-12.323-5.459-19.063l-2.14-1.86
			c-0.393-0.337-0.861-0.692-1.311-0.977c-5.095-3.235-11.847-1.727-15.082,3.368c-3.235,5.095-1.727,11.847,3.368,15.082
			l122.943,78.057l-41.18-35.789L153.603,155.288z"/>
		<g>
			<path fill="#A10B0A" d="M168.819,134.365l54.959,47.765l54.959,47.765l-61.472-39.028l-61.472-39.028
				c-5.095-3.235-6.603-9.987-3.368-15.082c3.235-5.095,9.987-6.603,15.082-3.368C167.958,133.673,168.426,134.028,168.819,134.365z
				"/>
			<path fill="#A40B0A" d="M152.515,136.812c2.051-3.231,5.533-5.008,9.103-5.023c2-0.008,4.024,0.538,5.835,1.687
				c0.446,0.283,0.91,0.635,1.299,0.969l54.432,47.306l54.432,47.306l-60.882-38.654L155.85,151.75
				c-2.521-1.601-4.158-4.073-4.762-6.78C150.485,142.264,150.915,139.332,152.515,136.812z"/>
			<path fill="#A70A0A" d="M152.603,136.868c2.03-3.197,5.476-4.96,9.016-4.974c1.982-0.008,3.986,0.534,5.777,1.671
				c0.442,0.28,0.901,0.629,1.287,0.96l53.904,46.848l53.904,46.848l-60.293-38.28l-60.293-38.28
				c-2.494-1.584-4.117-4.03-4.716-6.715C150.592,142.264,151.02,139.361,152.603,136.868z"/>
			<path fill="#AA0A09" d="M152.691,136.924c2.008-3.163,5.419-4.912,8.929-4.926c1.964-0.008,3.948,0.53,5.719,1.655
				c0.438,0.278,0.893,0.623,1.275,0.951l53.377,46.39l53.377,46.39l-59.703-37.906l-59.703-37.906
				c-2.468-1.567-4.076-3.987-4.67-6.649C150.699,142.264,151.126,139.391,152.691,136.924z"/>
			<path fill="#AD0909" d="M152.78,136.981c1.987-3.129,5.361-4.864,8.843-4.877c1.947-0.007,3.91,0.526,5.661,1.638
				c0.434,0.275,0.885,0.617,1.264,0.942l52.85,45.932l52.85,45.932l-59.114-37.531l-59.114-37.531
				c-2.441-1.55-4.035-3.944-4.624-6.583C150.806,142.263,151.231,139.42,152.78,136.981z"/>
			<path fill="#B00909" d="M152.868,137.037c1.965-3.095,5.304-4.816,8.756-4.828c1.929-0.007,3.871,0.522,5.603,1.622
				c0.43,0.273,0.876,0.611,1.252,0.933l52.323,45.473l52.323,45.473L214.6,188.553l-58.525-37.157
				c-2.414-1.533-3.994-3.901-4.577-6.518C150.914,142.263,151.336,139.449,152.868,137.037z"/>
			<path fill="#B30809" d="M152.957,137.093c1.944-3.061,5.247-4.768,8.669-4.78c1.911-0.007,3.833,0.518,5.545,1.606
				c0.426,0.27,0.868,0.606,1.24,0.924l51.795,45.015l51.795,45.015l-57.935-36.783l-57.935-36.783
				c-2.387-1.516-3.953-3.858-4.531-6.452C151.021,142.263,151.442,139.479,152.957,137.093z"/>
			<path fill="#B60809" d="M153.045,137.149c1.922-3.027,5.19-4.72,8.583-4.731c1.893-0.006,3.795,0.515,5.487,1.589
				c0.422,0.267,0.86,0.6,1.228,0.915l51.268,44.557l51.268,44.557l-57.346-36.409l-57.346-36.409
				c-2.36-1.499-3.912-3.815-4.485-6.386C151.128,142.263,151.547,139.508,153.045,137.149z"/>
			<path fill="#B90808" d="M153.134,137.205c1.901-2.994,5.133-4.672,8.496-4.683c1.875-0.006,3.757,0.511,5.429,1.573
				c0.418,0.265,0.852,0.594,1.216,0.907l50.741,44.099l50.741,44.099L213,187.165l-56.756-36.034
				c-2.333-1.482-3.87-3.773-4.439-6.321C151.236,142.263,151.653,139.537,153.134,137.205z"/>
			<path fill="#BC0708" d="M153.222,137.261c1.879-2.96,5.076-4.624,8.409-4.634c1.857-0.006,3.718,0.507,5.371,1.557
				c0.414,0.262,0.843,0.588,1.204,0.898l50.213,43.64l50.213,43.64l-56.167-35.66l-56.167-35.66
				c-2.307-1.465-3.829-3.73-4.393-6.255C151.343,142.263,151.758,139.567,153.222,137.261z"/>
			<path fill="#BF0708" d="M153.311,137.318c1.858-2.926,5.019-4.576,8.323-4.585c1.839-0.005,3.68,0.503,5.314,1.541
				c0.41,0.26,0.835,0.582,1.192,0.889l49.686,43.182l49.686,43.182l-55.578-35.286l-55.578-35.286
				c-2.28-1.448-3.788-3.687-4.347-6.19C151.45,142.263,151.864,139.596,153.311,137.318z"/>
			<path fill="#C20608" d="M153.399,137.374c1.836-2.892,4.962-4.528,8.236-4.537c1.821-0.005,3.642,0.499,5.256,1.524
				c0.406,0.257,0.827,0.577,1.18,0.88l49.159,42.724l49.159,42.724L211.4,185.777l-54.988-34.912
				c-2.253-1.431-3.747-3.644-4.301-6.124C151.557,142.263,151.969,139.625,153.399,137.374z"/>
			<path fill="#C50608" d="M153.487,137.43c1.815-2.858,4.905-4.48,8.149-4.488c1.803-0.005,3.604,0.495,5.198,1.508
				c0.402,0.255,0.818,0.571,1.168,0.871l48.632,42.265l48.632,42.265l-54.399-34.538l-54.399-34.538
				c-2.226-1.414-3.706-3.601-4.255-6.058C151.665,142.263,152.075,139.655,153.487,137.43z"/>
			<path fill="#C80608" d="M153.576,137.486c1.793-2.824,4.848-4.432,8.063-4.439c1.785-0.004,3.566,0.492,5.14,1.492
				c0.398,0.252,0.81,0.565,1.156,0.862l48.104,41.807l48.104,41.807l-53.809-34.163l-53.809-34.163
				c-2.199-1.397-3.665-3.558-4.208-5.993C151.772,142.263,152.18,139.684,153.576,137.486z"/>
			<path fill="#CB0507" d="M153.664,137.542c1.772-2.79,4.791-4.384,7.976-4.391c1.767-0.004,3.527,0.488,5.082,1.475
				c0.394,0.249,0.802,0.559,1.144,0.854l47.577,41.349l47.577,41.349l-53.22-33.789L156.58,150.6
				c-2.172-1.38-3.624-3.515-4.162-5.927C151.879,142.263,152.286,139.713,153.664,137.542z"/>
			<path fill="#CE0507" d="M153.753,137.598c1.75-2.756,4.734-4.336,7.889-4.342c1.749-0.004,3.489,0.484,5.024,1.459
				c0.39,0.247,0.794,0.553,1.133,0.845l47.05,40.891l47.05,40.891l-52.631-33.415l-52.631-33.415
				c-2.146-1.363-3.583-3.472-4.116-5.862C151.987,142.263,152.391,139.743,153.753,137.598z"/>
			<path fill="#D10407" d="M153.841,137.655c1.729-2.722,4.677-4.288,7.802-4.293c1.732-0.003,3.451,0.48,4.966,1.443
				c0.386,0.244,0.785,0.548,1.121,0.836l46.522,40.432l46.522,40.432l-52.041-33.041l-52.041-33.041
				c-2.119-1.346-3.542-3.43-4.07-5.796C152.094,142.263,152.497,139.772,153.841,137.655z"/>
			<path fill="#D40407" d="M153.93,137.711c1.707-2.689,4.62-4.24,7.716-4.245c1.714-0.003,3.413,0.476,4.908,1.426
				c0.382,0.242,0.777,0.542,1.109,0.827l45.995,39.974l45.995,39.974l-51.452-32.666l-51.452-32.666
				c-2.092-1.329-3.501-3.387-4.024-5.73C152.201,142.263,152.602,139.801,153.93,137.711z"/>
			<path fill="#D70307" d="M154.018,137.767c1.686-2.655,4.563-4.191,7.629-4.196c1.696-0.003,3.374,0.472,4.85,1.41
				c0.378,0.239,0.769,0.536,1.097,0.818l45.468,39.516l45.468,39.516l-50.862-32.292l-50.862-32.292
				c-2.065-1.312-3.46-3.344-3.978-5.665C152.308,142.263,152.707,139.831,154.018,137.767z"/>
			<path fill="#DA0306" d="M154.107,137.823c1.664-2.621,4.506-4.143,7.542-4.147c1.678-0.002,3.336,0.469,4.792,1.394
				c0.374,0.236,0.76,0.53,1.085,0.809l44.94,39.057l44.94,39.057l-50.273-31.918l-50.273-31.918
				c-2.038-1.295-3.419-3.301-3.932-5.599C152.416,142.263,152.813,139.86,154.107,137.823z"/>
			<path fill="#DD0306" d="M154.195,137.879c1.643-2.587,4.449-4.095,7.456-4.099c1.66-0.002,3.298,0.465,4.734,1.377
				c0.37,0.234,0.752,0.524,1.073,0.801l44.413,38.599l44.413,38.599l-49.684-31.544l-49.684-31.544
				c-2.011-1.278-3.378-3.258-3.886-5.533C152.523,142.263,152.918,139.889,154.195,137.879z"/>
			<path fill="#E00206" d="M154.283,137.935c1.621-2.553,4.392-4.047,7.369-4.05c1.642-0.002,3.26,0.461,4.676,1.361
				c0.366,0.231,0.744,0.519,1.061,0.792l43.886,38.141l43.886,38.141l-49.094-31.17l-49.094-31.17
				c-1.984-1.261-3.337-3.215-3.839-5.468C152.63,142.263,153.024,139.919,154.283,137.935z"/>
			<path fill="#E30206" d="M154.372,137.992c1.6-2.519,4.334-3.999,7.282-4.002c1.624-0.001,3.222,0.457,4.619,1.345
				c0.362,0.229,0.735,0.513,1.049,0.783l43.359,37.683l43.359,37.683l-48.505-30.795l-48.505-30.795
				c-1.958-1.244-3.296-3.172-3.793-5.402C152.738,142.263,153.129,139.948,154.372,137.992z"/>
			<path fill="#E60106" d="M154.46,138.048c1.578-2.485,4.277-3.951,7.196-3.953c1.606-0.001,3.183,0.453,4.561,1.329
				c0.358,0.226,0.727,0.507,1.037,0.774l42.831,37.224l42.831,37.224l-47.915-30.421l-47.915-30.421
				c-1.931-1.227-3.254-3.129-3.747-5.337C152.845,142.263,153.235,139.977,154.46,138.048z"/>
			<path fill="#E90105" d="M154.549,138.104c1.557-2.451,4.22-3.903,7.109-3.904c1.588-0.001,3.145,0.449,4.503,1.312
				c0.354,0.223,0.719,0.501,1.025,0.765l42.304,36.766l42.304,36.766l-47.326-30.047l-47.326-30.047
				c-1.904-1.21-3.213-3.087-3.701-5.271C152.952,142.263,153.34,140.007,154.549,138.104z"/>
			<path fill="#EC0005" d="M154.637,138.16c1.535-2.418,4.163-3.855,7.022-3.856c1.57,0,3.107,0.445,4.445,1.296
				c0.35,0.221,0.711,0.495,1.014,0.756l41.777,36.308l41.777,36.308L203.935,179.3l-46.737-29.673
				c-1.877-1.193-3.172-3.044-3.655-5.205C153.059,142.263,153.446,140.036,154.637,138.16z"/>
			<path fill="#EF0005" d="M157.254,149.539c-1.85-1.176-3.131-3.001-3.609-5.14c-0.479-2.136-0.094-4.334,1.08-6.183
				c1.514-2.384,4.106-3.807,6.936-3.807c1.552,0,3.069,0.442,4.387,1.28c0.346,0.218,0.702,0.49,1.002,0.748l41.249,35.85
				l41.249,35.85l-46.147-29.298L157.254,149.539z"/>
		</g>
	</g>
	<g>
		<path fill="#525446" d="M217.448,121.934c-4.616,7.893-9.857,13.563-12.573,16.22l11.289,5.246
			c5.129-5.982,9.633-11.815,13.356-17.294L217.448,121.934z"/>
		<path fill="#525446" d="M242.464,83.128h-16.781c0.353,3.269,0.515,6.797,0.386,10.67c-0.119,3.56-0.614,6.966-1.361,10.215h16.07
			C243.003,96.727,243.572,89.654,242.464,83.128z"/>
		<path fill="#525446" d="M221.562,67.212l9.924-4.359c-6.176-5.736-14.523-9.603-24.283-11.34
			C211.602,53.455,217.521,58.262,221.562,67.212z"/>
	</g>
	<path fill="#161211" d="M470.877,141.016c-4.493,9.68-9.795,19.635-16.728,29.039c-21.051,29.038-57.378,45.91-97.039,45.91
		c-44.71,0-77.646-20.189-66.05-56.971c2.005-6.361,4.37-12.723,7.458-19.084l53.34-112.006h26.319l-54.034,114.218
		c-2.204,4.702-4.495,9.68-5.977,14.382c-8.283,26.274,10.792,40.102,43.602,40.102c17.308,0,34.929-4.427,49.965-14.382
		c17.725-11.615,26.56-28.21,33.793-43.144l52.717-111.176h26.322L470.877,141.016z M511.629,212.368h-26.322l87.72-184.465h26.683
		L511.629,212.368z M675.108,114.742l64.132,97.626h-38.13L635.69,121.38l-43.468,90.988h-26.321l87.722-184.465h26.319
		l-37.902,80.202l134.318-80.202h40.352L675.108,114.742z"/>
	<g>
		<path fill="#525446" d="M288.756,139.909l53.34-112.006h-9.308l-53.34,112.006c-3.089,6.361-5.454,12.723-7.458,19.084
			c-11.596,36.782,21.34,56.971,66.05,56.971c1.353,0,2.692-0.068,4.037-0.107c-41.982-1.537-71.914-21.546-60.779-56.864
			C283.303,152.632,285.668,146.27,288.756,139.909z"/>
		<polygon fill="#525446" points="650.305,97.34 766.596,27.903 757.288,27.903 653.964,89.598 		"/>
		<path fill="#525446" d="M479.175,27.903l-52.717,111.176c-7.234,14.934-16.069,31.529-33.793,43.144
			c-13.861,9.177-29.916,13.606-45.9,14.251c1.708,0.082,3.451,0.131,5.242,0.131c17.308,0,34.929-4.427,49.965-14.382
			c17.725-11.615,26.56-28.21,33.793-43.144l52.717-111.176H479.175z"/>
		<polygon fill="#525446" points="629.987,139.97 682.041,212.368 691.349,212.368 633.703,132.192 		"/>
		<polygon fill="#525446" points="553.958,27.903 466.238,212.368 475.546,212.368 563.266,27.903 		"/>
		<polygon fill="#525446" points="634.554,27.903 546.832,212.368 556.139,212.368 643.862,27.903 		"/>
	</g>
	<g opacity="0.5">
		<linearGradient id="SVGID_1_" gradientUnits="userSpaceOnUse" x1="566.6084" y1="27.9028" x2="566.6084" y2="111.0112">
			<stop  offset="0.4167" style="stop-color:#FFFFFF;stop-opacity:0"/>
			<stop  offset="0.8463" style="stop-color:#FFFFFF;stop-opacity:0.9052"/>
			<stop  offset="0.8913" style="stop-color:#FFFFFF"/>
		</linearGradient>
		<path fill="url(#SVGID_1_)" d="M573.027,27.903l-39.521,83.108c8.823-0.491,17.758-0.702,26.782-0.548l39.423-82.561H573.027z"/>
		<linearGradient id="SVGID_2_" gradientUnits="userSpaceOnUse" x1="714.3204" y1="27.9028" x2="714.3204" y2="146.5485">
			<stop  offset="0.4167" style="stop-color:#FFFFFF;stop-opacity:0"/>
			<stop  offset="0.8463" style="stop-color:#FFFFFF;stop-opacity:0.9052"/>
			<stop  offset="0.8913" style="stop-color:#FFFFFF"/>
		</linearGradient>
		<path fill="url(#SVGID_2_)" d="M776.358,27.903L642.04,108.104l37.902-80.202h-26.319l-41.693,87.672
			c28.09,5.259,56.412,14.953,84.072,30.973l-20.894-31.806L816.71,27.903H776.358z"/>
		<linearGradient id="SVGID_3_" gradientUnits="userSpaceOnUse" x1="170.5579" y1="20.4718" x2="170.5579" y2="154.7869">
			<stop  offset="0.4167" style="stop-color:#FFFFFF;stop-opacity:0"/>
			<stop  offset="0.8463" style="stop-color:#FFFFFF;stop-opacity:0.9052"/>
			<stop  offset="0.8913" style="stop-color:#FFFFFF"/>
		</linearGradient>
		<path fill="url(#SVGID_3_)" d="M204.413,20.472c-51.617,0-109.675,36.509-137.758,84.353l16.555,9.97
			c21.705-39.373,68.61-72.516,111.998-72.516c22.835,0,40.417,9.266,49.395,23.738l-20.35,8.939h24.557
			c3.667,10.85,3.241,23.648-2.272,37.231h-32.273l27.62,9.545c-5.425,9.593-13.641,20.564-23.618,31.656l-31.017-14.413
			l18.869,15.507c9.674,0.25,23.693,0.445,40.294,0.176c8.15-10.453,14.921-21.684,19.811-33.39
			C289.48,65.599,261.805,20.472,204.413,20.472z"/>
		<linearGradient id="SVGID_4_" gradientUnits="userSpaceOnUse" x1="488.9905" y1="27.9028" x2="488.9905" y2="122.4416">
			<stop  offset="0.4167" style="stop-color:#FFFFFF;stop-opacity:0"/>
			<stop  offset="0.8463" style="stop-color:#FFFFFF;stop-opacity:0.9052"/>
			<stop  offset="0.8913" style="stop-color:#FFFFFF"/>
		</linearGradient>
		<path fill="url(#SVGID_4_)" d="M453.416,122.442c9.341-2.008,19.001-3.898,28.919-5.564l42.231-88.974h-26.322L453.416,122.442z"
			/>
		<linearGradient id="SVGID_5_" gradientUnits="userSpaceOnUse" x1="335.6845" y1="27.9028" x2="335.6845" y2="152.7039">
			<stop  offset="0.4167" style="stop-color:#FFFFFF;stop-opacity:0"/>
			<stop  offset="0.8463" style="stop-color:#FFFFFF;stop-opacity:0.9052"/>
			<stop  offset="0.8913" style="stop-color:#FFFFFF"/>
		</linearGradient>
		<path fill="url(#SVGID_5_)" d="M298.518,139.909c-2.071,4.265-3.796,8.53-5.326,12.795c8.95-0.618,18.099-1.407,27.29-2.403
			c1.144-2.749,2.408-5.508,3.66-8.18l54.034-114.218h-26.319L298.518,139.909z"/>
	</g>
</g>
</svg>
